<svg id="visual" viewBox="0 0 900 600" width="900" height="600" xmlns="http://www.w3.org/2000/svg" xmlns:xlink="http://www.w3.org/1999/xlink" version="1.1"><rect x="0" y="0" width="900" height="600" fill="#001220"></rect><defs><linearGradient id="grad1_0" x1="33.3%" y1="0%" x2="100%" y2="100%"><stop offset="20%" stop-color="#009473" stop-opacity="1"></stop><stop offset="80%" stop-color="#009473" stop-opacity="1"></stop></linearGradient></defs><defs><linearGradient id="grad1_1" x1="33.3%" y1="0%" x2="100%" y2="100%"><stop offset="20%" stop-color="#009473" stop-opacity="1"></stop><stop offset="80%" stop-color="#008172" stop-opacity="1"></stop></linearGradient></defs><defs><linearGradient id="grad1_2" x1="33.3%" y1="0%" x2="100%" y2="100%"><stop offset="20%" stop-color="#006d6d" stop-opacity="1"></stop><stop offset="80%" stop-color="#008172" stop-opacity="1"></stop></linearGradient></defs><defs><linearGradient id="grad1_3" x1="33.3%" y1="0%" x2="100%" y2="100%"><stop offset="20%" stop-color="#006d6d" stop-opacity="1"></stop><stop offset="80%" stop-color="#005964" stop-opacity="1"></stop></linearGradient></defs><defs><linearGradient id="grad1_4" x1="33.3%" y1="0%" x2="100%" y2="100%"><stop offset="20%" stop-color="#004657" stop-opacity="1"></stop><stop offset="80%" stop-color="#005964" stop-opacity="1"></stop></linearGradient></defs><defs><linearGradient id="grad1_5" x1="33.3%" y1="0%" x2="100%" y2="100%"><stop offset="20%" stop-color="#004657" stop-opacity="1"></stop><stop offset="80%" stop-color="#003446" stop-opacity="1"></stop></linearGradient></defs><defs><linearGradient id="grad1_6" x1="33.3%" y1="0%" x2="100%" y2="100%"><stop offset="20%" stop-color="#002334" stop-opacity="1"></stop><stop offset="80%" stop-color="#003446" stop-opacity="1"></stop></linearGradient></defs><defs><linearGradient id="grad1_7" x1="33.3%" y1="0%" x2="100%" y2="100%"><stop offset="20%" stop-color="#002334" stop-opacity="1"></stop><stop offset="80%" stop-color="#001220" stop-opacity="1"></stop></linearGradient></defs><defs><linearGradient id="grad2_0" x1="0%" y1="0%" x2="66.7%" y2="100%"><stop offset="20%" stop-color="#009473" stop-opacity="1"></stop><stop offset="80%" stop-color="#009473" stop-opacity="1"></stop></linearGradient></defs><defs><linearGradient id="grad2_1" x1="0%" y1="0%" x2="66.7%" y2="100%"><stop offset="20%" stop-color="#008172" stop-opacity="1"></stop><stop offset="80%" stop-color="#009473" stop-opacity="1"></stop></linearGradient></defs><defs><linearGradient id="grad2_2" x1="0%" y1="0%" x2="66.7%" y2="100%"><stop offset="20%" stop-color="#008172" stop-opacity="1"></stop><stop offset="80%" stop-color="#006d6d" stop-opacity="1"></stop></linearGradient></defs><defs><linearGradient id="grad2_3" x1="0%" y1="0%" x2="66.7%" y2="100%"><stop offset="20%" stop-color="#005964" stop-opacity="1"></stop><stop offset="80%" stop-color="#006d6d" stop-opacity="1"></stop></linearGradient></defs><defs><linearGradient id="grad2_4" x1="0%" y1="0%" x2="66.7%" y2="100%"><stop offset="20%" stop-color="#005964" stop-opacity="1"></stop><stop offset="80%" stop-color="#004657" stop-opacity="1"></stop></linearGradient></defs><defs><linearGradient id="grad2_5" x1="0%" y1="0%" x2="66.7%" y2="100%"><stop offset="20%" stop-color="#003446" stop-opacity="1"></stop><stop offset="80%" stop-color="#004657" stop-opacity="1"></stop></linearGradient></defs><defs><linearGradient id="grad2_6" x1="0%" y1="0%" x2="66.7%" y2="100%"><stop offset="20%" stop-color="#003446" stop-opacity="1"></stop><stop offset="80%" stop-color="#002334" stop-opacity="1"></stop></linearGradient></defs><defs><linearGradient id="grad2_7" x1="0%" y1="0%" x2="66.7%" y2="100%"><stop offset="20%" stop-color="#001220" stop-opacity="1"></stop><stop offset="80%" stop-color="#002334" stop-opacity="1"></stop></linearGradient></defs><g transform="translate(900, 0)"><path d="M0 432.7C-65.9 438.1 -131.8 443.6 -165.6 399.7C-199.4 355.9 -201 262.8 -208.6 208.6C-216.2 154.4 -229.6 139.2 -267.9 111C-306.3 82.7 -369.5 41.4 -432.7 0L0 0Z" fill="#011a2a"></path><path d="M0 378.6C-57.7 383.4 -115.3 388.1 -144.9 349.8C-174.4 311.4 -175.9 229.9 -182.5 182.5C-189.1 135.1 -200.9 121.8 -234.4 97.1C-268 72.4 -323.3 36.2 -378.6 0L0 0Z" fill="#002b3d"></path><path d="M0 324.5C-49.4 328.6 -98.8 332.7 -124.2 299.8C-149.5 266.9 -150.8 197.1 -156.4 156.4C-162.1 115.8 -172.2 104.4 -200.9 83.2C-229.7 62 -277.1 31 -324.5 0L0 0Z" fill="#003d4f"></path><path d="M0 270.4C-41.2 273.8 -82.4 277.2 -103.5 249.8C-124.6 222.4 -125.6 164.2 -130.4 130.4C-135.1 96.5 -143.5 87 -167.5 69.4C-191.4 51.7 -230.9 25.8 -270.4 0L0 0Z" fill="#00505e"></path><path d="M0 216.3C-32.9 219.1 -65.9 221.8 -82.8 199.9C-99.7 177.9 -100.5 131.4 -104.3 104.3C-108.1 77.2 -114.8 69.6 -134 55.5C-153.1 41.4 -184.7 20.7 -216.3 0L0 0Z" fill="#006369"></path><path d="M0 162.2C-24.7 164.3 -49.4 166.3 -62.1 149.9C-74.8 133.5 -75.4 98.5 -78.2 78.2C-81.1 57.9 -86.1 52.2 -100.5 41.6C-114.8 31 -138.5 15.5 -162.2 0L0 0Z" fill="#007770"></path><path d="M0 108.2C-16.5 109.5 -32.9 110.9 -41.4 99.9C-49.8 89 -50.3 65.7 -52.1 52.1C-54 38.6 -57.4 34.8 -67 27.7C-76.6 20.7 -92.4 10.3 -108.2 0L0 0Z" fill="#008a73"></path><path d="M0 54.1C-8.2 54.8 -16.5 55.4 -20.7 50C-24.9 44.5 -25.1 32.8 -26.1 26.1C-27 19.3 -28.7 17.4 -33.5 13.9C-38.3 10.3 -46.2 5.2 -54.1 0L0 0Z" fill="#009473"></path></g><g transform="translate(0, 600)"><path d="M0 -432.7C55.4 -415.4 110.8 -398.2 153.1 -369.6C195.3 -340.9 224.4 -301 268 -268C311.6 -235 369.9 -209.1 399.7 -165.6C429.6 -122.1 431.1 -61 432.7 0L0 0Z" fill="#011a2a"></path><path d="M0 -378.6C48.5 -363.5 97 -348.4 133.9 -323.4C170.9 -298.3 196.3 -263.3 234.5 -234.5C272.7 -205.6 323.6 -182.9 349.8 -144.9C375.9 -106.8 377.2 -53.4 378.6 0L0 0Z" fill="#002b3d"></path><path d="M0 -324.5C41.6 -311.6 83.1 -298.6 114.8 -277.2C146.5 -255.7 168.3 -225.7 201 -201C233.7 -176.3 277.4 -156.8 299.8 -124.2C322.2 -91.6 323.4 -45.8 324.5 0L0 0Z" fill="#003d4f"></path><path d="M0 -270.4C34.6 -259.6 69.3 -248.9 95.7 -231C122.1 -213.1 140.2 -188.1 167.5 -167.5C194.8 -146.9 231.2 -130.7 249.8 -103.5C268.5 -76.3 269.5 -38.1 270.4 0L0 0Z" fill="#00505e"></path><path d="M0 -216.3C27.7 -207.7 55.4 -199.1 76.5 -184.8C97.7 -170.5 112.2 -150.5 134 -134C155.8 -117.5 184.9 -104.5 199.9 -82.8C214.8 -61 215.6 -30.5 216.3 0L0 0Z" fill="#006369"></path><path d="M0 -162.2C20.8 -155.8 41.6 -149.3 57.4 -138.6C73.2 -127.9 84.1 -112.9 100.5 -100.5C116.9 -88.1 138.7 -78.4 149.9 -62.1C161.1 -45.8 161.7 -22.9 162.2 0L0 0Z" fill="#007770"></path><path d="M0 -108.2C13.9 -103.9 27.7 -99.5 38.3 -92.4C48.8 -85.2 56.1 -75.2 67 -67C77.9 -58.8 92.5 -52.3 99.9 -41.4C107.4 -30.5 107.8 -15.3 108.2 0L0 0Z" fill="#008a73"></path><path d="M0 -54.1C6.9 -51.9 13.9 -49.8 19.1 -46.2C24.4 -42.6 28 -37.6 33.5 -33.5C39 -29.4 46.2 -26.1 50 -20.7C53.7 -15.3 53.9 -7.6 54.1 0L0 0Z" fill="#009473"></path></g></svg>